<?xml version="1.0" encoding="UTF-8"?>
<!DOCTYPE svg PUBLIC "-//W3C//DTD SVG 1.1//EN" "http://www.w3.org/Graphics/SVG/1.1/DTD/svg11.dtd">
<svg xmlns="http://www.w3.org/2000/svg" version="1.1" width="32px" height="32px" style="shape-rendering:geometricPrecision; text-rendering:geometricPrecision; image-rendering:optimizeQuality; fill-rule:evenodd; clip-rule:evenodd" xmlns:xlink="http://www.w3.org/1999/xlink">
<g><path style="opacity:0.982" fill="#2a9eee" d="M 9.5,-0.5 C 13.5,-0.5 17.5,-0.5 21.5,-0.5C 25.8333,1.83333 29.1667,5.16667 31.5,9.5C 31.5,13.5 31.5,17.5 31.5,21.5C 29.1667,25.8333 25.8333,29.1667 21.5,31.5C 17.5,31.5 13.5,31.5 9.5,31.5C 5.16667,29.1667 1.83333,25.8333 -0.5,21.5C -0.5,17.5 -0.5,13.5 -0.5,9.5C 1.83333,5.16667 5.16667,1.83333 9.5,-0.5 Z"/></g>
<g><path style="opacity:1" fill="#f8fbfe" d="M 3.5,6.5 C 10.6146,4.62894 14.2813,7.29561 14.5,14.5C 14.4001,17.9657 13.4001,21.1323 11.5,24C 8.85397,24.4974 6.1873,24.6641 3.5,24.5C 3.5,18.5 3.5,12.5 3.5,6.5 Z"/></g>
<g><path style="opacity:1" fill="#f2f9fd" d="M 16.5,6.5 C 19.5184,6.33537 22.5184,6.50204 25.5,7C 28.1667,9.66667 28.1667,12.3333 25.5,15C 28.1667,18 28.1667,21 25.5,24C 22.5184,24.498 19.5184,24.6646 16.5,24.5C 16.5,18.5 16.5,12.5 16.5,6.5 Z"/></g>
<g><path style="opacity:1" fill="#37a3ef" d="M 6.5,9.5 C 9.94963,9.57258 11.283,11.4059 10.5,15C 11.24,18.6589 9.9067,20.8256 6.5,21.5C 6.5,17.5 6.5,13.5 6.5,9.5 Z"/></g>
<g><path style="opacity:1" fill="#259dee" d="M 20.5,9.5 C 21.5,9.5 22.5,9.5 23.5,9.5C 23.5,10.8333 23.5,12.1667 23.5,13.5C 22.5,13.5 21.5,13.5 20.5,13.5C 20.5,12.1667 20.5,10.8333 20.5,9.5 Z"/></g>
<g><path style="opacity:1" fill="#a9d8f8" d="M 23.5,17.5 C 22.5,17.5 21.5,17.5 20.5,17.5C 20.5,18.8333 20.5,20.1667 20.5,21.5C 19.5489,20.0813 19.2155,18.4147 19.5,16.5C 21.099,16.2322 22.4324,16.5655 23.5,17.5 Z"/></g>
<g><path style="opacity:1" fill="#41a4ef" d="M 23.5,17.5 C 25.0348,20.3298 24.0348,21.6631 20.5,21.5C 20.5,20.1667 20.5,18.8333 20.5,17.5C 21.5,17.5 22.5,17.5 23.5,17.5 Z"/></g>
</svg>
